<svg version="1.1" xmlns="http://www.w3.org/2000/svg" viewBox="0 0 1350 852" width="1350" height="852">
  <!-- svg-source:excalidraw -->
  
  <defs>
    <style class="style-fonts">
      @font-face {
        font-family: "Virgil";
        src: url("https://excalidraw.com/Virgil.woff2");
      }
      @font-face {
        font-family: "Cascadia";
        src: url("https://excalidraw.com/Cascadia.woff2");
      }
      @font-face {
        font-family: "Assistant";
        src: url("https://excalidraw.com/Assistant-Regular.woff2");
      }
    </style>
    
  </defs>
  <rect x="0" y="0" width="1350" height="852" fill="#ffffff"></rect><g stroke-linecap="round" transform="translate(402 187) rotate(0 113 54.5)"><path d="M27.25 0 C68 -2.38, 106.59 0.28, 198.75 0 M27.25 0 C82.36 -1.03, 135.93 -0.7, 198.75 0 M198.75 0 C217.87 0.04, 224.2 7.77, 226 27.25 M198.75 0 C217.99 -0.9, 225.92 7.5, 226 27.25 M226 27.25 C227.96 49.36, 224.62 69.64, 226 81.75 M226 27.25 C225.6 46.58, 226.33 64.31, 226 81.75 M226 81.75 C226.27 99.77, 218.64 108.11, 198.75 109 M226 81.75 C227.56 99.7, 215.28 106.8, 198.75 109 M198.75 109 C138.88 107.26, 75.52 105.81, 27.25 109 M198.75 109 C145.51 110.18, 92.46 110.81, 27.25 109 M27.25 109 C10.99 108.28, -0.71 100.44, 0 81.75 M27.25 109 C11.1 111.08, -1.38 100.97, 0 81.75 M0 81.75 C-1.21 65.25, -1.33 44.31, 0 27.25 M0 81.75 C0.15 65.49, 0.1 48.68, 0 27.25 M0 27.25 C-0.6 10.59, 8.23 1.12, 27.25 0 M0 27.25 C1.82 11.31, 8.88 2.14, 27.25 0" stroke="#1e1e1e" stroke-width="1" fill="none"></path></g><g transform="translate(446.4499969482422 229) rotate(0 68.55000305175781 12.5)"><text x="68.55000305175781" y="0" font-family="Virgil, Segoe UI Emoji" font-size="20px" fill="#1e1e1e" text-anchor="middle" style="white-space: pre;" direction="ltr" dominant-baseline="text-before-edge">Core language</text></g><g stroke-linecap="round" transform="translate(402 373) rotate(0 114 57)"><path d="M28.5 0 C85.48 0.55, 140.91 2.64, 199.5 0 M28.5 0 C73.44 -0.78, 119.4 -1.83, 199.5 0 M199.5 0 C219.95 0.21, 229.92 8.19, 228 28.5 M199.5 0 C220.02 -0.49, 228.18 9.74, 228 28.5 M228 28.5 C228.7 51.96, 226.46 71.85, 228 85.5 M228 28.5 C228.25 42.79, 228.94 55.86, 228 85.5 M228 85.5 C229.93 102.99, 219.88 112.24, 199.5 114 M228 85.5 C226.26 103.67, 217.82 115.79, 199.5 114 M199.5 114 C141.16 115.58, 84.54 115.08, 28.5 114 M199.5 114 C154.47 115.77, 107.95 114.98, 28.5 114 M28.5 114 C8.54 115.05, -0.76 104.33, 0 85.5 M28.5 114 C7.62 112.85, -1.47 102.9, 0 85.5 M0 85.5 C-1.35 68.74, -0.21 50.22, 0 28.5 M0 85.5 C-0.6 63.87, 0.05 42.42, 0 28.5 M0 28.5 C0.77 7.56, 10.49 -1.6, 28.5 0 M0 28.5 C-0.61 8.25, 10.81 1.46, 28.5 0" stroke="#1e1e1e" stroke-width="1" fill="none"></path></g><g transform="translate(470.92499923706055 417.5) rotate(0 45.07500076293945 12.5)"><text x="45.07500076293945" y="0" font-family="Virgil, Segoe UI Emoji" font-size="20px" fill="#1e1e1e" text-anchor="middle" style="white-space: pre;" direction="ltr" dominant-baseline="text-before-edge">Backends</text></g><g stroke-linecap="round" transform="translate(55 611) rotate(0 132.5 58.5)"><path d="M134.73 -0.81 C149.89 -1.38, 168.13 2.43, 182.73 5.1 C197.33 7.77, 210.86 10.5, 222.34 15.24 C233.81 19.98, 244.41 27.03, 251.58 33.53 C258.75 40.04, 264.09 47.33, 265.36 54.27 C266.63 61.22, 263.97 68.48, 259.2 75.22 C254.44 81.95, 246.48 89.11, 236.78 94.7 C227.08 100.29, 214.66 105.17, 201.02 108.78 C187.39 112.38, 170.74 115.11, 154.97 116.32 C139.2 117.53, 122.19 117.53, 106.39 116.04 C90.58 114.54, 73.44 111.17, 60.15 107.35 C46.85 103.53, 35.95 98.64, 26.6 93.14 C17.24 87.64, 8.25 81.12, 4.01 74.34 C-0.23 67.56, -0.54 59.53, 1.16 52.45 C2.85 45.38, 7.08 38.24, 14.19 31.9 C21.3 25.55, 31.72 19.16, 43.82 14.4 C55.93 9.65, 68.3 5.57, 86.83 3.37 C105.35 1.18, 140.37 1.19, 154.97 1.22 C169.57 1.25, 174.59 2.58, 174.42 3.55 M137.93 0.98 C153.15 0.15, 168.68 1.23, 183.04 3.78 C197.4 6.33, 212.64 11.02, 224.08 16.28 C235.53 21.54, 244.79 28.86, 251.71 35.32 C258.63 41.79, 264.54 48.42, 265.62 55.05 C266.71 61.68, 263 68.63, 258.21 75.1 C253.43 81.57, 246.92 88.42, 236.92 93.85 C226.91 99.29, 212.3 103.97, 198.2 107.71 C184.1 111.45, 167.73 114.99, 152.3 116.31 C136.88 117.63, 121.34 117.35, 105.66 115.64 C89.98 113.94, 71.72 110.16, 58.21 106.09 C44.7 102.02, 33.55 96.65, 24.61 91.25 C15.67 85.84, 8.45 80.47, 4.57 73.67 C0.69 66.88, -0.65 57.79, 1.31 50.49 C3.27 43.2, 8.64 35.88, 16.34 29.9 C24.03 23.93, 35.66 19.04, 47.5 14.66 C59.34 10.27, 72.47 6.17, 87.4 3.58 C102.32 0.99, 128.92 -0.73, 137.04 -0.89 C145.16 -1.05, 136.34 1.7, 136.11 2.62" stroke="#1e1e1e" stroke-width="1" fill="none"></path></g><g transform="translate(121.05835149278244 657.1342533005869) rotate(0 66.25 12.5)"><text x="66.25" y="0" font-family="Virgil, Segoe UI Emoji" font-size="20px" fill="#1e1e1e" text-anchor="middle" style="white-space: pre;" direction="ltr" dominant-baseline="text-before-edge">GHA Workflow</text></g><g stroke-linecap="round" transform="translate(376.5 611.5) rotate(0 132.5 58.5)"><path d="M119.5 0.7 C134.16 -0.85, 152.24 -0.6, 167.64 1.3 C183.04 3.2, 198.94 7.66, 211.9 12.11 C224.85 16.56, 237.01 22.16, 245.35 28.01 C253.69 33.87, 259.2 40.42, 261.95 47.24 C264.7 54.06, 264.75 62.02, 261.84 68.93 C258.93 75.85, 252.56 82.81, 244.48 88.73 C236.4 94.64, 226.03 99.95, 213.35 104.43 C200.67 108.9, 183.93 113.48, 168.41 115.59 C152.89 117.71, 135.98 117.95, 120.25 117.12 C104.52 116.28, 88.17 113.84, 74.03 110.61 C59.88 107.37, 46.33 102.93, 35.36 97.7 C24.39 92.47, 13.95 85.81, 8.21 79.22 C2.47 72.62, 0.87 65.25, 0.91 58.13 C0.95 51.02, 2.76 43.15, 8.46 36.54 C14.17 29.94, 24.32 23.44, 35.12 18.5 C45.92 13.56, 57.87 9.95, 73.28 6.88 C88.69 3.82, 117.59 1.06, 127.59 0.1 C137.59 -0.85, 133.28 0.18, 133.29 1.15 M120.35 1.47 C135.45 0.1, 153.73 0.74, 168.81 2.28 C183.9 3.82, 198.13 6.5, 210.86 10.7 C223.59 14.89, 236.4 21.52, 245.22 27.45 C254.03 33.39, 260.79 39.63, 263.74 46.29 C266.68 52.94, 265.85 60.11, 262.89 67.36 C259.93 74.6, 254.29 83.65, 245.96 89.76 C237.63 95.86, 225.41 99.87, 212.91 103.99 C200.42 108.11, 186.32 112.32, 170.99 114.5 C155.66 116.67, 137.26 117.46, 120.96 117.06 C104.67 116.65, 87.25 115.46, 73.23 112.09 C59.2 108.72, 47.62 101.96, 36.81 96.84 C25.99 91.71, 14.43 87.59, 8.35 81.35 C2.26 75.12, 0.14 66.43, 0.3 59.43 C0.45 52.44, 3.86 45.82, 9.3 39.37 C14.73 32.92, 22.51 26.11, 32.89 20.73 C43.26 15.35, 57.19 10.4, 71.55 7.06 C85.9 3.72, 111 1.87, 119.01 0.7 C127.01 -0.46, 119.22 -1.04, 119.59 0.05" stroke="#1e1e1e" stroke-width="1" fill="none"></path></g><g transform="translate(455.05001637925704 645.1342533005869) rotate(0 53.75833511352539 25)"><text x="53.75833511352539" y="0" font-family="Virgil, Segoe UI Emoji" font-size="20px" fill="#1e1e1e" text-anchor="middle" style="white-space: pre;" direction="ltr" dominant-baseline="text-before-edge">Travis CI </text><text x="53.75833511352539" y="25" font-family="Virgil, Segoe UI Emoji" font-size="20px" fill="#1e1e1e" text-anchor="middle" style="white-space: pre;" direction="ltr" dominant-baseline="text-before-edge">Workflow</text></g><g transform="translate(500 783) rotate(0 8.225000381469727 12.5)"><text x="0" y="0" font-family="Virgil, Segoe UI Emoji" font-size="20px" fill="#1e1e1e" text-anchor="start" style="white-space: pre;" direction="ltr" dominant-baseline="text-before-edge">...</text></g><g stroke-linecap="round" transform="translate(699.5 614.5) rotate(0 132.5 58.5)"><path d="M171.17 1.67 C186.52 2.78, 202.62 8.98, 215.27 13.44 C227.93 17.9, 239.28 22.52, 247.11 28.41 C254.93 34.3, 259.58 41.87, 262.23 48.78 C264.88 55.7, 266.01 63.15, 262.99 69.91 C259.96 76.68, 252.94 83.34, 244.07 89.37 C235.2 95.4, 222.63 101.74, 209.75 106.11 C196.88 110.47, 182.24 113.8, 166.8 115.57 C151.36 117.35, 132.88 117.5, 117.1 116.75 C101.32 115.99, 86.09 114.32, 72.13 111.04 C58.16 107.77, 43.92 102.38, 33.3 97.12 C22.67 91.85, 13.93 86.16, 8.38 79.46 C2.83 72.77, -0.34 63.99, 0.02 56.96 C0.39 49.93, 4.39 43.56, 10.58 37.27 C16.78 30.97, 26.42 24.55, 37.19 19.18 C47.97 13.8, 61.09 8.03, 75.23 5 C89.37 1.97, 105.68 1.46, 122.01 0.98 C138.34 0.51, 164.27 1.46, 173.2 2.15 C182.13 2.84, 176.37 4.02, 175.6 5.15 M99.12 2.4 C113.03 -0.05, 132.31 -0.88, 148.49 0.11 C164.66 1.1, 181.89 4.92, 196.17 8.35 C210.45 11.78, 223.91 15.56, 234.17 20.67 C244.44 25.78, 252.75 32.32, 257.77 39 C262.79 45.69, 264.8 53.75, 264.31 60.77 C263.81 67.79, 261.16 74.89, 254.8 81.12 C248.43 87.36, 237.42 92.98, 226.14 98.17 C214.86 103.36, 201.32 109.26, 187.12 112.26 C172.92 115.26, 156.84 115.68, 140.95 116.17 C125.07 116.67, 106.8 117.05, 91.78 115.23 C76.76 113.42, 63.01 110.07, 50.86 105.27 C38.7 100.46, 27.13 92.65, 18.83 86.42 C10.54 80.2, 3.85 74.72, 1.09 67.89 C-1.66 61.07, -1.06 52.27, 2.29 45.45 C5.65 38.63, 12.44 32.9, 21.2 26.99 C29.96 21.07, 41.71 14.3, 54.84 9.96 C67.97 5.63, 92.3 2.34, 99.98 0.96 C107.65 -0.42, 100.49 0.53, 100.88 1.69" stroke="#1e1e1e" stroke-width="1" fill="none"></path></g><g transform="translate(769.3916835545501 660.6342533005869) rotate(0 62.41666793823242 12.5)"><text x="62.41666793823242" y="0" font-family="Virgil, Segoe UI Emoji" font-size="20px" fill="#1e1e1e" text-anchor="middle" style="white-space: pre;" direction="ltr" dominant-baseline="text-before-edge">Local Runner</text></g><g stroke-linecap="round" transform="translate(705 188) rotate(0 107.5 54.5)"><path d="M27.25 0 C85.55 0.54, 141.31 0.19, 187.75 0 M27.25 0 C62.07 1.5, 96.27 2.05, 187.75 0 M187.75 0 C204.74 -1.59, 215.16 10.1, 215 27.25 M187.75 0 C206.1 0.57, 214.77 7.5, 215 27.25 M215 27.25 C214.3 47.44, 213.92 71.92, 215 81.75 M215 27.25 C214.6 42.63, 214.07 59.72, 215 81.75 M215 81.75 C216.07 99.42, 207.84 107.14, 187.75 109 M215 81.75 C215.24 100.06, 205.35 109.47, 187.75 109 M187.75 109 C124.51 108.68, 65.07 108.91, 27.25 109 M187.75 109 C138.99 107.77, 90.11 109.32, 27.25 109 M27.25 109 C10.59 110.27, -1.71 99.53, 0 81.75 M27.25 109 C8.46 109.97, 0.82 99.41, 0 81.75 M0 81.75 C0.69 65.18, 0.03 44.86, 0 27.25 M0 81.75 C-0.78 65, 1.12 48.37, 0 27.25 M0 27.25 C-0.8 7.41, 10.12 1.08, 27.25 0 M0 27.25 C-1.23 7.71, 7 0.28, 27.25 0" stroke="#1e1e1e" stroke-width="1" fill="none"></path></g><g transform="translate(744.4749984741211 230) rotate(0 68.0250015258789 12.5)"><text x="68.0250015258789" y="0" font-family="Virgil, Segoe UI Emoji" font-size="20px" fill="#1e1e1e" text-anchor="middle" style="white-space: pre;" direction="ltr" dominant-baseline="text-before-edge">Package Repo</text></g><g stroke-linecap="round" transform="translate(1033 54) rotate(0 135.5 43)"><path d="M165.39 1.63 C181.88 2.06, 200.03 4.33, 214.05 7.23 C228.07 10.14, 240.25 14.38, 249.51 19.05 C258.77 23.72, 266.65 29.86, 269.61 35.25 C272.58 40.64, 271.18 46.02, 267.29 51.4 C263.41 56.78, 256.12 62.87, 246.3 67.53 C236.49 72.18, 223.1 76.37, 208.42 79.31 C193.73 82.25, 175.37 84.17, 158.19 85.16 C141.01 86.14, 121.89 86.36, 105.33 85.22 C88.77 84.08, 72.89 81.42, 58.81 78.32 C44.74 75.22, 30.49 71.3, 20.89 66.63 C11.3 61.97, 4.16 55.77, 1.24 50.34 C-1.69 44.92, -0.68 39.25, 3.32 34.07 C7.33 28.89, 15.31 23.85, 25.26 19.28 C35.21 14.71, 48.53 9.78, 63.03 6.63 C77.53 3.48, 94.65 1.29, 112.27 0.38 C129.89 -0.52, 158.72 0.94, 168.75 1.19 C178.78 1.44, 172.9 1.22, 172.46 1.87 M149.8 0.63 C166.57 0.26, 186.62 1.79, 201.72 4.35 C216.83 6.91, 229.56 11.67, 240.45 16 C251.34 20.32, 261.89 24.89, 267.05 30.3 C272.21 35.71, 273.42 42.61, 271.41 48.44 C269.39 54.26, 263.54 60.4, 254.93 65.25 C246.33 70.09, 233.51 74.52, 219.78 77.51 C206.06 80.49, 189.41 81.66, 172.59 83.16 C155.76 84.66, 136.11 87.16, 118.81 86.51 C101.51 85.86, 83.82 82.1, 68.79 79.25 C53.75 76.39, 39.05 73.25, 28.59 69.37 C18.13 65.48, 10.49 61.38, 6.03 55.94 C1.57 50.5, 0.14 42.43, 1.83 36.72 C3.52 31.01, 8.18 26.05, 16.17 21.67 C24.16 17.29, 35.91 13.57, 49.76 10.45 C63.61 7.33, 82.52 4.55, 99.29 2.94 C116.06 1.34, 141.9 0.98, 150.37 0.81 C158.84 0.64, 150.26 1.08, 150.11 1.92" stroke="#1e1e1e" stroke-width="1" fill="none"></path></g><g transform="translate(1097.3953670256876 84.59440840897844) rotate(0 71.29166412353516 12.5)"><text x="71.29166412353516" y="0" font-family="Virgil, Segoe UI Emoji" font-size="20px" fill="#1e1e1e" text-anchor="middle" style="white-space: pre;" direction="ltr" dominant-baseline="text-before-edge">Terraform Pkg</text></g><g stroke-linecap="round" transform="translate(1039.5 182) rotate(0 135.5 43)"><path d="M153.67 0.78 C170.14 0.82, 187.86 2.97, 202.82 5.55 C217.79 8.14, 232.79 11.82, 243.47 16.29 C254.14 20.77, 262.49 26.89, 266.85 32.4 C271.21 37.92, 271.91 44.05, 269.63 49.39 C267.34 54.74, 261.7 60, 253.15 64.47 C244.59 68.93, 232.18 72.92, 218.29 76.18 C204.41 79.45, 186.49 82.4, 169.83 84.05 C153.17 85.7, 135.33 86.72, 118.34 86.08 C101.35 85.43, 83.02 82.95, 67.89 80.2 C52.76 77.45, 38.04 73.99, 27.55 69.56 C17.07 65.13, 9.54 59.01, 4.99 53.61 C0.45 48.2, -1.9 42.54, 0.29 37.13 C2.49 31.71, 9.45 25.69, 18.17 21.11 C26.9 16.53, 38.98 13.03, 52.64 9.63 C66.31 6.23, 81.28 1.99, 100.17 0.73 C119.06 -0.52, 152.93 1.59, 165.96 2.1 C179 2.61, 178.92 3.32, 178.39 3.77 M86.97 2.26 C101.37 -0.18, 119.84 -0.55, 136.96 -0.11 C154.09 0.33, 173.78 2.59, 189.72 4.9 C205.66 7.2, 220.42 10.22, 232.59 13.72 C244.77 17.22, 256.18 20.61, 262.76 25.88 C269.34 31.15, 272.77 39.5, 272.09 45.34 C271.42 51.19, 265.88 56.02, 258.71 60.95 C251.55 65.88, 241.43 71.18, 229.08 74.92 C216.72 78.67, 200.8 81.42, 184.58 83.4 C168.35 85.39, 149.15 87.01, 131.72 86.85 C114.29 86.68, 95.87 84.53, 79.99 82.4 C64.12 80.28, 48.21 78.01, 36.48 74.08 C24.75 70.14, 15.53 64.09, 9.6 58.79 C3.68 53.49, 0.46 47.92, 0.94 42.27 C1.42 36.61, 5.59 30.03, 12.48 24.85 C19.36 19.68, 29.9 15.01, 42.23 11.23 C54.55 7.46, 78.8 3.21, 86.42 2.2 C94.05 1.19, 87.38 4.25, 87.98 5.18" stroke="#1e1e1e" stroke-width="1" fill="none"></path></g><g transform="translate(1120.7120326751017 212.59440840897844) rotate(0 54.474998474121094 12.5)"><text x="54.474998474121094" y="0" font-family="Virgil, Segoe UI Emoji" font-size="20px" fill="#1e1e1e" text-anchor="middle" style="white-space: pre;" direction="ltr" dominant-baseline="text-before-edge">Docker Pkg</text></g><g transform="translate(1166.7749996185303 337.5) rotate(0 8.225000381469727 12.5)"><text x="0" y="0" font-family="Virgil, Segoe UI Emoji" font-size="20px" fill="#1e1e1e" text-anchor="start" style="white-space: pre;" direction="ltr" dominant-baseline="text-before-edge">...</text></g><g stroke-linecap="round" transform="translate(999 10) rotate(0 170.5 205)"><path d="M32 0 C90.07 -0.26, 150.42 -0.55, 309 0 M32 0 C122.98 2.23, 215.17 1.81, 309 0 M309 0 C330.56 -1.86, 339.92 10.16, 341 32 M309 0 C331.84 0.7, 341.62 8.87, 341 32 M341 32 C342.12 139.99, 342.46 246.63, 341 378 M341 32 C340.09 154.74, 339.93 276.74, 341 378 M341 378 C340.79 398.52, 328.92 411.74, 309 410 M341 378 C340.24 397.2, 329.58 411.68, 309 410 M309 410 C201.35 407.91, 91.77 409.29, 32 410 M309 410 C229.81 411.12, 150.01 411.2, 32 410 M32 410 C10.43 409.42, 0.92 398.01, 0 378 M32 410 C11.09 408.37, -2.26 401.41, 0 378 M0 378 C1.25 286.91, 2.58 195.69, 0 32 M0 378 C-0.4 250.21, 0.1 121.39, 0 32 M0 32 C-1.71 10.28, 10.78 1.32, 32 0 M0 32 C-2.19 10.29, 12.16 0.51, 32 0" stroke="#1e1e1e" stroke-width="1" fill="none"></path></g><g stroke-linecap="round" transform="translate(10 561) rotate(0 503 140.5)"><path d="M32 0 C407.16 3.72, 781.98 3.66, 974 0 M32 0 C383.8 1.72, 735.38 1.45, 974 0 M974 0 C996.89 0.84, 1006.88 10.77, 1006 32 M974 0 C993.83 -0.22, 1008.07 10.66, 1006 32 M1006 32 C1005.27 118.01, 1004.94 204.47, 1006 249 M1006 32 C1006.08 94.66, 1005.84 156.68, 1006 249 M1006 249 C1004.39 269.76, 996.3 281.22, 974 281 M1006 249 C1006.22 270.23, 993.63 280.01, 974 281 M974 281 C747.23 278.19, 518.28 278.69, 32 281 M974 281 C722.92 284.49, 471.82 285.01, 32 281 M32 281 C12.54 280.14, 1.27 270.75, 0 249 M32 281 C10.7 282.44, -1.44 270.78, 0 249 M0 249 C-2.88 161.39, -0.83 75.52, 0 32 M0 249 C1.13 188.77, 0.95 128.46, 0 32 M0 32 C-0.1 11.88, 11.88 0.68, 32 0 M0 32 C0.76 9.58, 10.05 -1.49, 32 0" stroke="#1e1e1e" stroke-width="1" fill="none"></path></g><g stroke-linecap="round"><g transform="translate(642 238.68839469754414) rotate(0 23.000000000000057 -0.5426761777095521)"><path d="M0.36 -0.32 C7.97 -0.53, 38.29 -1.01, 45.81 -1.2 M-0.13 0.7 C7.39 0.57, 37.51 -0.27, 45.28 -0.55" stroke="#1e1e1e" stroke-width="1" fill="none"></path></g><g transform="translate(642 238.68839469754414) rotate(0 23.000000000000057 -0.5426761777095521)"><path d="M23.92 7.99 C30.12 4.85, 37.31 1.49, 45.28 -0.55 M23.92 7.99 C29.33 6.01, 34.52 4.35, 45.28 -0.55" stroke="#1e1e1e" stroke-width="1" fill="none"></path></g><g transform="translate(642 238.68839469754414) rotate(0 23.000000000000057 -0.5426761777095521)"><path d="M23.42 -7.74 C29.79 -5.87, 37.14 -4.23, 45.28 -0.55 M23.42 -7.74 C28.95 -5.95, 34.27 -3.85, 45.28 -0.55" stroke="#1e1e1e" stroke-width="1" fill="none"></path></g></g><mask></mask><g stroke-linecap="round"><g transform="translate(929 240) rotate(0 27.5 0)"><path d="M0.04 0.61 C9.07 0.88, 44.62 1.14, 53.86 1.02 M-1.4 -0.11 C8.02 -0.11, 46.58 -0.77, 55.97 -0.57" stroke="#1e1e1e" stroke-width="1" fill="none"></path></g><g transform="translate(929 240) rotate(0 27.5 0)"><path d="M30.14 8.85 C38.17 4.4, 45.81 4.58, 55.97 -0.57 M30.14 8.85 C37.45 6.44, 45.57 2.87, 55.97 -0.57" stroke="#1e1e1e" stroke-width="1" fill="none"></path></g><g transform="translate(929 240) rotate(0 27.5 0)"><path d="M30.13 -9.96 C38.07 -9.34, 45.72 -4.09, 55.97 -0.57 M30.13 -9.96 C37.33 -6.95, 45.46 -5.09, 55.97 -0.57" stroke="#1e1e1e" stroke-width="1" fill="none"></path></g></g><mask></mask><g stroke-linecap="round"><g transform="translate(513 306) rotate(0 0 23.5)"><path d="M0.02 -0.12 C0.05 7.72, 0.47 38.93, 0.4 46.7 M-0.64 -0.66 C-0.66 7.28, -0.05 39.33, 0.17 47.24" stroke="#1e1e1e" stroke-width="1" fill="none"></path></g><g transform="translate(513 306) rotate(0 0 23.5)"><path d="M-8.36 25.34 C-5.78 33.4, -3.26 39.23, 0.17 47.24 M-8.36 25.34 C-6.44 30.21, -5 34.67, 0.17 47.24" stroke="#1e1e1e" stroke-width="1" fill="none"></path></g><g transform="translate(513 306) rotate(0 0 23.5)"><path d="M7.72 24.98 C4.89 33.17, 2.03 39.12, 0.17 47.24 M7.72 24.98 C6.38 29.85, 4.56 34.38, 0.17 47.24" stroke="#1e1e1e" stroke-width="1" fill="none"></path></g></g><mask></mask><g stroke-linecap="round"><g transform="translate(513.1164956404069 495.7093453065936) rotate(0 0 23.5)"><path d="M-0.09 0.31 C-0.01 8.1, 0.17 39.01, 0.13 46.85 M-0.8 -0.01 C-0.75 7.85, -0.5 39.73, -0.23 47.47" stroke="#1e1e1e" stroke-width="1" fill="none"></path></g><g transform="translate(513.1164956404069 495.7093453065936) rotate(0 0 23.5)"><path d="M-8.69 25.55 C-6.11 30.97, -4.95 35.3, -0.23 47.47 M-8.69 25.55 C-5.14 33.63, -2.17 42, -0.23 47.47" stroke="#1e1e1e" stroke-width="1" fill="none"></path></g><g transform="translate(513.1164956404069 495.7093453065936) rotate(0 0 23.5)"><path d="M7.38 25.24 C6.17 30.72, 3.54 35.12, -0.23 47.47 M7.38 25.24 C5.05 33.42, 2.14 41.9, -0.23 47.47" stroke="#1e1e1e" stroke-width="1" fill="none"></path></g></g><mask></mask></svg>