<?xml version="1.0" encoding="UTF-8"?><svg xmlns="http://www.w3.org/2000/svg" xmlns:xlink="http://www.w3.org/1999/xlink" fill-opacity="1" color-rendering="auto" color-interpolation="auto" text-rendering="auto" stroke="black" stroke-linecap="square" width="336" stroke-miterlimit="10" shape-rendering="auto" stroke-opacity="1" fill="black" stroke-dasharray="none" font-weight="normal" stroke-width="1" height="108" font-family="'Dialog'" font-style="normal" stroke-linejoin="miter" font-size="12px" stroke-dashoffset="0" image-rendering="auto">
  <!--Generated by ySVG 2.5-->
  <defs id="genericDefs"/>
  <g>
    <defs id="defs1">
      <clipPath clipPathUnits="userSpaceOnUse" id="clipPath1">
        <path d="M0 0 L336 0 L336 108 L0 108 L0 0 Z"/>
      </clipPath>
      <clipPath clipPathUnits="userSpaceOnUse" id="clipPath2">
        <path d="M232 302 L568 302 L568 410 L232 410 L232 302 Z"/>
      </clipPath>
    </defs>
    <g fill="white" text-rendering="geometricPrecision" shape-rendering="geometricPrecision" transform="translate(-232,-302)" stroke="white">
      <rect x="232" width="336" height="108" y="302" clip-path="url(#clipPath2)" stroke="none"/>
    </g>
    <g fill="white" text-rendering="geometricPrecision" shape-rendering="geometricPrecision" transform="matrix(1,0,0,1,-232,-302)" stroke="white">
      <rect x="301.4749" width="88.0502" height="33.4634" y="307.7683" clip-path="url(#clipPath2)" stroke="none"/>
    </g>
    <g font-size="15px" stroke-linecap="butt" transform="matrix(1,0,0,1,-232,-302)" text-rendering="geometricPrecision" font-family="monospace" shape-rendering="geometricPrecision" stroke-miterlimit="1.45">
      <text x="313.8923" xml:space="preserve" y="329.6929" clip-path="url(#clipPath2)" stroke="none">String?</text>
    </g>
    <g fill="white" text-rendering="geometricPrecision" shape-rendering="geometricPrecision" transform="matrix(1,0,0,1,-232,-302)" stroke="white">
      <rect x="237.9498" width="88.0502" height="33.4634" y="371.2317" clip-path="url(#clipPath2)" stroke="none"/>
    </g>
    <g stroke-linecap="butt" font-size="15px" transform="matrix(1,0,0,1,-232,-302)" fill="green" text-rendering="geometricPrecision" font-family="monospace" shape-rendering="geometricPrecision" stroke="green" stroke-miterlimit="1.45">
      <text x="250.3672" xml:space="preserve" y="393.1562" clip-path="url(#clipPath2)" stroke="none">"Clean"</text>
    </g>
    <g fill="white" text-rendering="geometricPrecision" shape-rendering="geometricPrecision" transform="matrix(1,0,0,1,-232,-302)" stroke="white">
      <rect x="356" width="88.0502" height="33.4634" y="371.2317" clip-path="url(#clipPath2)" stroke="none"/>
    </g>
    <g stroke-linecap="butt" font-size="15px" transform="matrix(1,0,0,1,-232,-302)" fill="rgb(66,139,202)" text-rendering="geometricPrecision" font-family="monospace" shape-rendering="geometricPrecision" stroke="rgb(66,139,202)" font-weight="bold" stroke-miterlimit="1.45">
      <text x="381.9636" xml:space="preserve" y="393.1562" clip-path="url(#clipPath2)" stroke="none">null</text>
    </g>
    <g fill="white" text-rendering="geometricPrecision" shape-rendering="geometricPrecision" transform="matrix(1,0,0,1,-232,-302)" stroke="white">
      <rect x="474.0502" width="88.0502" height="33.4634" y="307.7683" clip-path="url(#clipPath2)" stroke="none"/>
    </g>
    <g font-size="15px" stroke-linecap="butt" transform="matrix(1,0,0,1,-232,-302)" text-rendering="geometricPrecision" font-family="monospace" shape-rendering="geometricPrecision" stroke-miterlimit="1.45">
      <text x="490.983" xml:space="preserve" y="329.6929" clip-path="url(#clipPath2)" stroke="none">String</text>
    </g>
    <g fill="white" text-rendering="geometricPrecision" shape-rendering="geometricPrecision" transform="matrix(1,0,0,1,-232,-302)" stroke="white">
      <rect x="474.0502" width="88.0502" height="33.4634" y="371.2317" clip-path="url(#clipPath2)" stroke="none"/>
    </g>
    <g stroke-linecap="butt" font-size="15px" transform="matrix(1,0,0,1,-232,-302)" fill="green" text-rendering="geometricPrecision" font-family="monospace" shape-rendering="geometricPrecision" stroke="green" stroke-miterlimit="1.45">
      <text x="486.4677" xml:space="preserve" y="393.1562" clip-path="url(#clipPath2)" stroke="none">"Clean"</text>
    </g>
    <g text-rendering="geometricPrecision" stroke-miterlimit="1.45" shape-rendering="geometricPrecision" transform="matrix(1,0,0,1,-232,-302)" stroke-linecap="butt">
      <path fill="none" d="M328.752 341.2317 L304.3824 365.5776" clip-path="url(#clipPath2)"/>
      <path d="M298.7228 371.2317 L310.7461 366.2878 L305.0899 364.8708 L303.6784 359.2133 Z" clip-path="url(#clipPath2)" stroke="none"/>
      <path fill="none" d="M359.8752 341.2317 L380.4366 365.1637" clip-path="url(#clipPath2)"/>
      <path d="M385.6499 371.2317 L381.6224 358.8713 L379.7849 364.4052 L374.0374 365.388 Z" clip-path="url(#clipPath2)" stroke="none"/>
      <path fill="none" d="M518.0753 341.2317 L518.0753 363.2317" clip-path="url(#clipPath2)"/>
      <path d="M518.0753 371.2317 L523.0753 359.2317 L518.0753 362.2317 L513.0753 359.2317 Z" clip-path="url(#clipPath2)" stroke="none"/>
    </g>
  </g>
</svg>
