<svg version="1.1" xmlns="http://www.w3.org/2000/svg" viewBox="0 0 770 494" width="770" height="494">
  <!-- svg-source:excalidraw -->
  
  <defs>
    <style class="style-fonts">
      @font-face {
        font-family: "Virgil";
        src: url("https://excalidraw.com/Virgil.woff2");
      }
      @font-face {
        font-family: "Cascadia";
        src: url("https://excalidraw.com/Cascadia.woff2");
      }
      @font-face {
        font-family: "Assistant";
        src: url("https://excalidraw.com/Assistant-Regular.woff2");
      }
    </style>
    
  </defs>
  <g stroke-linecap="round" transform="translate(10 10) rotate(0 75 32.5)"><path d="M1.33 -0.81 L151.45 1.36 L148.5 65.43 L-1.32 64.71" stroke="none" stroke-width="0" fill="#ffc9c9"></path><path d="M0 0 C31.19 -1.41, 60.07 -1.05, 150 0 M0 0 C39.97 0.07, 77.52 1.29, 150 0 M150 0 C150.94 21.45, 149.7 41.16, 150 65 M150 0 C149.8 13.22, 149.38 26.4, 150 65 M150 65 C109.51 65.03, 64.91 63.71, 0 65 M150 65 C99.49 64.21, 47.57 63.92, 0 65 M0 65 C0.41 49.35, -1.56 31.78, 0 0 M0 65 C0.62 40.23, -1.17 15.97, 0 0" stroke="#1e1e1e" stroke-width="2" fill="none"></path></g><g stroke-linecap="round" transform="translate(10 419) rotate(0 75 32.5)"><path d="M1.45 1.36 L148.5 0.43 L148.68 64.71 L0.01 63.48" stroke="none" stroke-width="0" fill="#ffc9c9"></path><path d="M0 0 C44.82 0, 89.05 0.62, 150 0 M0 0 C37.81 1.5, 77.54 1.71, 150 0 M150 0 C149.27 23.68, 148.22 49.91, 150 65 M150 0 C149.94 19.89, 149.96 39.54, 150 65 M150 65 C101.21 63.17, 54.42 66.77, 0 65 M150 65 C116.72 65.53, 81.8 64.82, 0 65 M0 65 C-1.99 41.08, 1.7 19.89, 0 0 M0 65 C-1.45 47.81, 0.03 28.26, 0 0" stroke="#1e1e1e" stroke-width="2" fill="none"></path></g><g stroke-linecap="round" transform="translate(210 10) rotate(0 75 32.5)"><path d="M-1.5 0.43 L148.68 -0.29 L150.01 63.48 L1.75 65.62" stroke="none" stroke-width="0" fill="#a5d8ff"></path><path d="M0 0 C33.58 0.35, 67.86 2.41, 150 0 M0 0 C36.83 -0.12, 73.97 -0.79, 150 0 M150 0 C147.81 17.93, 149.9 38.87, 150 65 M150 0 C149.69 18.32, 150.09 38.83, 150 65 M150 65 C108.08 65.78, 62.94 65.76, 0 65 M150 65 C99.54 64.38, 50.65 65.04, 0 65 M0 65 C2.34 44.81, 0.24 24.37, 0 0 M0 65 C1.19 43.57, 1.25 23.63, 0 0" stroke="#1e1e1e" stroke-width="2" fill="none"></path></g><g stroke-linecap="round" transform="translate(210 419) rotate(0 75 32.5)"><path d="M-1.32 -0.29 L150.01 -1.52 L151.75 65.62 L1.7 64.28" stroke="none" stroke-width="0" fill="#a5d8ff"></path><path d="M0 0 C36.2 1.95, 72.97 -1.27, 150 0 M0 0 C55.7 -1.1, 109.47 -1.72, 150 0 M150 0 C149.56 13.73, 149.22 26.19, 150 65 M150 0 C150.1 19.04, 149.73 36.03, 150 65 M150 65 C115.6 68.46, 84.84 67.63, 0 65 M150 65 C104.96 63.97, 59.08 62.99, 0 65 M0 65 C-0.96 50.1, -0.08 29.66, 0 0 M0 65 C0.29 39.8, -1.18 13.45, 0 0" stroke="#1e1e1e" stroke-width="2" fill="none"></path></g><g stroke-linecap="round" transform="translate(410 10) rotate(0 75 32.5)"><path d="M0.01 -1.52 L151.75 0.62 L151.7 64.28 L1.65 66.41" stroke="none" stroke-width="0" fill="#b2f2bb"></path><path d="M0 0 C40.52 -2.82, 84.6 -0.58, 150 0 M0 0 C57.86 -0.71, 114.85 -1.24, 150 0 M150 0 C149.9 14.94, 149.65 30.3, 150 65 M150 0 C149.99 14.97, 149.33 30.94, 150 65 M150 65 C90.75 67.61, 30.26 65.46, 0 65 M150 65 C115.43 63.98, 79.9 65.82, 0 65 M0 65 C0.6 40.3, 2.1 20.16, 0 0 M0 65 C-1.22 48.36, -1.13 31.13, 0 0" stroke="#1e1e1e" stroke-width="2" fill="none"></path></g><g stroke-linecap="round" transform="translate(410 419) rotate(0 75 32.5)"><path d="M1.75 0.62 L151.7 -0.72 L151.65 66.41 L0.71 65.47" stroke="none" stroke-width="0" fill="#b2f2bb"></path><path d="M0 0 C58.39 1.83, 115.9 3.08, 150 0 M0 0 C46.9 -0.31, 95.07 0.74, 150 0 M150 0 C149.53 20.56, 148.64 42.28, 150 65 M150 0 C149.1 25.7, 150.9 49.8, 150 65 M150 65 C90.3 64.84, 29.09 66.96, 0 65 M150 65 C104.85 64.35, 61.05 63.3, 0 65 M0 65 C1.81 40.45, -0.96 14.71, 0 0 M0 65 C-0.17 40.93, 0.49 16.39, 0 0" stroke="#1e1e1e" stroke-width="2" fill="none"></path></g><g stroke-linecap="round" transform="translate(610 10) rotate(0 75 32.5)"><path d="M1.7 -0.72 L151.65 1.41 L150.71 65.47 L0.69 66.04" stroke="none" stroke-width="0" fill="#ffec99"></path><path d="M0 0 C34.66 1.41, 66.27 -0.56, 150 0 M0 0 C37.92 1.52, 77.34 1.35, 150 0 M150 0 C148.56 18.63, 151.64 36.11, 150 65 M150 0 C150.47 16.91, 150.46 35.64, 150 65 M150 65 C95.14 65.35, 42.95 64.79, 0 65 M150 65 C120.54 66.07, 90.96 66.5, 0 65 M0 65 C-1.45 52.2, 0.72 35, 0 0 M0 65 C0.44 43.33, 1.3 23.49, 0 0" stroke="#1e1e1e" stroke-width="2" fill="none"></path></g><g stroke-linecap="round" transform="translate(610 419) rotate(0 75 32.5)"><path d="M1.65 1.41 L150.71 0.47 L150.69 66.04 L-0.5 64.41" stroke="none" stroke-width="0" fill="#ffec99"></path><path d="M0 0 C50.07 -1.49, 98.52 -3.32, 150 0 M0 0 C30.92 -0.22, 61.21 -0.34, 150 0 M150 0 C151.35 18.02, 149.01 35.02, 150 65 M150 0 C151.63 22.65, 151.21 44.67, 150 65 M150 65 C112.58 66.38, 73.22 65.02, 0 65 M150 65 C93.28 64.93, 33.79 65.67, 0 65 M0 65 C1.63 39.69, 0.7 16.05, 0 0 M0 65 C0.87 46.75, 0.84 27.52, 0 0" stroke="#1e1e1e" stroke-width="2" fill="none"></path></g><g stroke-linecap="round"><g transform="translate(85 75) rotate(0 -0.059859054475168705 172)"><path d="M0 0 C-0.13 134.19, -0.83 270.06, 0 344 M0 0 C0.37 106.22, 0.38 212.29, 0 344" stroke="#999" stroke-width="1" fill="none"></path></g></g><mask></mask><g stroke-linecap="round"><g transform="translate(285 75) rotate(0 -0.6050459804928323 172)"><path d="M0 0 C-2.23 100.85, -0.85 203.68, 0 344 M0 0 C-0.57 99.97, -0.31 201.38, 0 344" stroke="#999" stroke-width="1" fill="none"></path></g></g><mask></mask><g stroke-linecap="round"><g transform="translate(485 75) rotate(0 -0.8093188933849547 172)"><path d="M0 0 C-2.04 70.64, -2.27 140.44, 0 344 M0 0 C-0.27 96.67, -0.51 191.98, 0 344" stroke="#999" stroke-width="1" fill="none"></path></g></g><mask></mask><g stroke-linecap="round"><g transform="translate(685 75) rotate(0 0.07442410703140467 172)"><path d="M0 0 C0.1 80.89, -0.06 162.07, 0 344 M0 0 C0.39 80.53, -0.04 161.73, 0 344" stroke="#999" stroke-width="1" fill="none"></path></g></g><mask></mask><g mask="url(#mask-IinZJXpERGxXyZ8AEuZqe)" stroke-linecap="round"><g transform="translate(85.5 119) rotate(0 98.47834446735214 -0.5413477480318534)"><path d="M-0.24 -0.25 C32.85 -0.36, 165.53 -1, 198.78 -0.78 M-1.82 -1.42 C31.06 -1.39, 164.31 0.22, 197.72 0.34" stroke="#1e1e1e" stroke-width="2" fill="none"></path></g><g transform="translate(85.5 119) rotate(0 98.47834446735214 -0.5413477480318534)"><path d="M174.16 8.7 C181.33 5.69, 188.03 3.79, 197.72 0.34 M174.16 8.7 C182.52 5.95, 193.48 1.52, 197.72 0.34" stroke="#1e1e1e" stroke-width="2" fill="none"></path></g><g transform="translate(85.5 119) rotate(0 98.47834446735214 -0.5413477480318534)"><path d="M174.3 -8.4 C181.42 -5.91, 188.06 -2.3, 197.72 0.34 M174.3 -8.4 C182.58 -4.5, 193.49 -2.28, 197.72 0.34" stroke="#1e1e1e" stroke-width="2" fill="none"></path></g></g><mask id="mask-IinZJXpERGxXyZ8AEuZqe"><rect x="0" y="0" fill="#fff" width="385.5" height="219"></rect><rect x="124.6878662109375" y="109" fill="#000" width="120.624267578125" height="20" opacity="1"></rect></mask><g mask="url(#mask-uGujntFge_725AGZ7z9af)" stroke-linecap="round"><g transform="translate(285.5 173) rotate(0 98.73245430923532 0.317186749731178)"><path d="M-0.22 -0.78 C33.03 -0.57, 166.08 0.99, 199.26 1.07 M-1.79 1.42 C31.34 1.35, 165.15 -0.39, 198.45 -0.5" stroke="#1e1e1e" stroke-width="2" fill="none"></path></g><g transform="translate(285.5 173) rotate(0 98.73245430923532 0.317186749731178)"><path d="M175.03 8.26 C180.3 6.28, 189.94 3.1, 198.45 -0.5 M175.03 8.26 C182.45 5.03, 188.8 3.73, 198.45 -0.5" stroke="#1e1e1e" stroke-width="2" fill="none"></path></g><g transform="translate(285.5 173) rotate(0 98.73245430923532 0.317186749731178)"><path d="M174.88 -8.85 C180.16 -6.03, 189.84 -4.42, 198.45 -0.5 M174.88 -8.85 C182.21 -7.42, 188.6 -4.08, 198.45 -0.5" stroke="#1e1e1e" stroke-width="2" fill="none"></path></g></g><mask id="mask-uGujntFge_725AGZ7z9af"><rect x="0" y="0" fill="#fff" width="585.5" height="273"></rect><rect x="327.6158752441406" y="163" fill="#000" width="114.76824951171875" height="20" opacity="1"></rect></mask><g mask="url(#mask-cGx7GMLG-YubJUIvLe6bx)" stroke-linecap="round"><g transform="translate(485.5 227) rotate(0 98.87863746769261 0.40144337624499826)"><path d="M0.26 1.07 C33.43 1.14, 165.86 -0.25, 198.82 -0.34 M-1.07 0.58 C31.95 0.9, 164.2 1.37, 197.78 1.02" stroke="#1e1e1e" stroke-width="2" fill="none"></path></g><g transform="translate(485.5 227) rotate(0 98.87863746769261 0.40144337624499826)"><path d="M174.31 9.62 C182.76 6.85, 187.03 3.11, 197.78 1.02 M174.31 9.62 C183.27 7.17, 190.91 3.93, 197.78 1.02" stroke="#1e1e1e" stroke-width="2" fill="none"></path></g><g transform="translate(485.5 227) rotate(0 98.87863746769261 0.40144337624499826)"><path d="M174.27 -7.48 C182.61 -5.43, 186.9 -4.35, 197.78 1.02 M174.27 -7.48 C183.41 -4.06, 191.07 -1.43, 197.78 1.02" stroke="#1e1e1e" stroke-width="2" fill="none"></path></g></g><mask id="mask-cGx7GMLG-YubJUIvLe6bx"><rect x="0" y="0" fill="#fff" width="785.5" height="327"></rect><rect x="538.1118927001953" y="217" fill="#000" width="93.77621459960938" height="20" opacity="1"></rect></mask><g mask="url(#mask-JH3N7Mk3LnDiBhUdmIM89)" stroke-linecap="round"><g transform="translate(684.5 281) rotate(0 -100.07201861217618 0.08963457891454141)"><path d="M-0.18 -0.34 C-33.55 -0.43, -167.03 0.61, -199.97 0.52" stroke="#1e1e1e" stroke-width="2.5" fill="none" stroke-dasharray="1.5 8"></path></g><g transform="translate(684.5 281) rotate(0 -100.07201861217618 0.08963457891454141)"><path d="M-176.5 -8.1 C-184.54 -6.98, -190.65 -0.61, -199.97 0.52" stroke="#1e1e1e" stroke-width="2.5" fill="none" stroke-dasharray="1.5 6"></path></g><g transform="translate(684.5 281) rotate(0 -100.07201861217618 0.08963457891454141)"><path d="M-176.45 9 C-184.65 4.62, -190.78 5.5, -199.97 0.52" stroke="#1e1e1e" stroke-width="2.5" fill="none" stroke-dasharray="1.5 6"></path></g></g><mask id="mask-JH3N7Mk3LnDiBhUdmIM89"><rect x="0" y="0" fill="#fff" width="984.5" height="381"></rect><rect x="550.0239334106445" y="271" fill="#000" width="69.95213317871094" height="20" opacity="1"></rect></mask><g mask="url(#mask-iG0d0b36-UqugFrS-YBuu)" stroke-linecap="round"><g transform="translate(484.5 335) rotate(0 -99.38719078376892 -0.18632330819968956)"><path d="M-0.97 0.52 C-33.91 0.43, -165 -0.87, -197.81 -0.89" stroke="#1e1e1e" stroke-width="2.5" fill="none" stroke-dasharray="1.5 8"></path></g><g transform="translate(484.5 335) rotate(0 -99.38719078376892 -0.18632330819968956)"><path d="M-174.27 -9.31 C-180.14 -5.11, -189.21 -2.72, -197.81 -0.89" stroke="#1e1e1e" stroke-width="2.5" fill="none" stroke-dasharray="1.5 6"></path></g><g transform="translate(484.5 335) rotate(0 -99.38719078376892 -0.18632330819968956)"><path d="M-174.37 7.8 C-180.16 7.12, -189.2 4.62, -197.81 -0.89" stroke="#1e1e1e" stroke-width="2.5" fill="none" stroke-dasharray="1.5 6"></path></g></g><mask id="mask-iG0d0b36-UqugFrS-YBuu"><rect x="0" y="0" fill="#fff" width="784.5" height="435"></rect><rect x="363.5679473876953" y="325" fill="#000" width="42.864105224609375" height="20" opacity="1"></rect></mask><g mask="url(#mask-8tNYzMPghcUyanEHzitQ5)" stroke-linecap="round"><g transform="translate(284.5 389) rotate(0 -98.31241010501981 -0.24831605110125565)"><path d="M1.19 -0.89 C-31.62 -0.91, -164.57 0.24, -197.82 0.4" stroke="#1e1e1e" stroke-width="2.5" fill="none" stroke-dasharray="1.5 8"></path></g><g transform="translate(284.5 389) rotate(0 -98.31241010501981 -0.24831605110125565)"><path d="M-174.38 -8.31 C-180.98 -4.2, -183.97 -3.12, -197.82 0.4" stroke="#1e1e1e" stroke-width="2.5" fill="none" stroke-dasharray="1.5 6"></path></g><g transform="translate(284.5 389) rotate(0 -98.31241010501981 -0.24831605110125565)"><path d="M-174.27 8.79 C-180.96 9.15, -183.98 6.47, -197.82 0.4" stroke="#1e1e1e" stroke-width="2.5" fill="none" stroke-dasharray="1.5 6"></path></g></g><mask id="mask-8tNYzMPghcUyanEHzitQ5"><rect x="0" y="0" fill="#fff" width="583.5" height="489"></rect><rect x="128.9438705444336" y="379" fill="#000" width="112.11225891113281" height="20" opacity="1"></rect></mask><g transform="translate(74.927978515625 32.5) rotate(0 10.072021484375 10)"><text x="10.072021484375" y="14.016" font-family="Virgil, Segoe UI Emoji" font-size="16px" fill="#000" text-anchor="middle" style="white-space: pre;" direction="ltr" dominant-baseline="alphabetic">UI</text></g><g transform="translate(74.927978515625 441.5) rotate(0 10.072021484375 10)"><text x="10.072021484375" y="14.016" font-family="Virgil, Segoe UI Emoji" font-size="16px" fill="#000" text-anchor="middle" style="white-space: pre;" direction="ltr" dominant-baseline="alphabetic">UI</text></g><g transform="translate(268.63197326660156 32.5) rotate(0 16.368026733398438 10)"><text x="16.368026733398438" y="14.016" font-family="Virgil, Segoe UI Emoji" font-size="16px" fill="#000" text-anchor="middle" style="white-space: pre;" direction="ltr" dominant-baseline="alphabetic">Bloc</text></g><g transform="translate(268.63197326660156 441.5) rotate(0 16.368026733398438 10)"><text x="16.368026733398438" y="14.016" font-family="Virgil, Segoe UI Emoji" font-size="16px" fill="#000" text-anchor="middle" style="white-space: pre;" direction="ltr" dominant-baseline="alphabetic">Bloc</text></g><g transform="translate(463.5679473876953 32.5) rotate(0 21.432052612304688 10)"><text x="21.432052612304688" y="14.016" font-family="Virgil, Segoe UI Emoji" font-size="16px" fill="#000" text-anchor="middle" style="white-space: pre;" direction="ltr" dominant-baseline="alphabetic">Data</text></g><g transform="translate(463.5679473876953 441.5) rotate(0 21.432052612304688 10)"><text x="21.432052612304688" y="14.016" font-family="Virgil, Segoe UI Emoji" font-size="16px" fill="#000" text-anchor="middle" style="white-space: pre;" direction="ltr" dominant-baseline="alphabetic">Data</text></g><g transform="translate(654.3119354248047 32.5) rotate(0 30.688064575195312 10)"><text x="30.688064575195312" y="14.016" font-family="Virgil, Segoe UI Emoji" font-size="16px" fill="#000" text-anchor="middle" style="white-space: pre;" direction="ltr" dominant-baseline="alphabetic">Network</text></g><g transform="translate(654.3119354248047 441.5) rotate(0 30.688064575195312 10)"><text x="30.688064575195312" y="14.016" font-family="Virgil, Segoe UI Emoji" font-size="16px" fill="#000" text-anchor="middle" style="white-space: pre;" direction="ltr" dominant-baseline="alphabetic">Network</text></g><g transform="translate(124.6878662109375 109) rotate(0 59.290478256414644 9.458652251968147)"><text x="60.3121337890625" y="14.016" font-family="Virgil, Segoe UI Emoji" font-size="16px" fill="#1e1e1e" text-anchor="middle" style="white-space: pre;" direction="ltr" dominant-baseline="alphabetic">Dispatch Event</text></g><g transform="translate(327.6158752441406 163) rotate(0 56.6165790650947 10.317186749731178)"><text x="57.384124755859375" y="14.016" font-family="Virgil, Segoe UI Emoji" font-size="16px" fill="#1e1e1e" text-anchor="middle" style="white-space: pre;" direction="ltr" dominant-baseline="alphabetic">Request Data</text></g><g transform="translate(538.1118927001953 217) rotate(0 46.2667447674973 10.401443376244998)"><text x="46.88810729980469" y="14.016" font-family="Virgil, Segoe UI Emoji" font-size="16px" fill="#1e1e1e" text-anchor="middle" style="white-space: pre;" direction="ltr" dominant-baseline="alphabetic">Fetch Data</text></g><g transform="translate(550.0239334106445 271) rotate(0 34.40404797717929 10.089634578914541)"><text x="34.97606658935547" y="14.016" font-family="Virgil, Segoe UI Emoji" font-size="16px" fill="#1e1e1e" text-anchor="middle" style="white-space: pre;" direction="ltr" dominant-baseline="alphabetic">Response</text></g><g transform="translate(363.5679473876953 325) rotate(0 21.544861828535772 9.81367669180031)"><text x="21.432052612304688" y="14.016" font-family="Virgil, Segoe UI Emoji" font-size="16px" fill="#1e1e1e" text-anchor="middle" style="white-space: pre;" direction="ltr" dominant-baseline="alphabetic">Data</text></g><g transform="translate(128.9438705444336 379) rotate(0 57.2437193505466 9.751683948898744)"><text x="56.056129455566406" y="14.016" font-family="Virgil, Segoe UI Emoji" font-size="16px" fill="#1e1e1e" text-anchor="middle" style="white-space: pre;" direction="ltr" dominant-baseline="alphabetic">Update State</text></g></svg>