<svg xmlns="http://www.w3.org/2000/svg" xmlns:xlink="http://www.w3.org/1999/xlink" xmlns:lucid="lucid" width="1293" height="476"><g transform="translate(-47 -667)" lucid:page-tab-id="0ULWvW~ZbuxL"><path d="M195.67 716.17c17.67 0 32 17.9 32 40s-14.33 40-32 40h-96c-17.68 0-32-17.9-32-40s14.32-40 32-40z" stroke="#000" stroke-opacity="0" stroke-width="2" fill="#d2d3d5"/><use xlink:href="#a" transform="matrix(1,0,0,1,72.66726323570549,721.1666734166666) translate(22.449999999999996 38.4625)"/><use xlink:href="#b" transform="matrix(1,0,0,1,72.66726323570549,721.1666734166666) translate(57.65 38.4625)"/><path d="M275 704.17a8 8 0 0 1 8-8h144a8 8 0 0 1 8 8v104a8 8 0 0 1-8 8H283a8 8 0 0 1-8-8z" stroke="#000" stroke-opacity="0" stroke-width="2" fill="#008a0e"/><use xlink:href="#c" transform="matrix(1,0,0,1,279.99940343096125,701.1666734166666) translate(22.75 59.0875)"/><use xlink:href="#d" transform="matrix(1,0,0,1,279.99940343096125,701.1666734166666) translate(75.7 59.0875)"/><path d="M565 704.17a8 8 0 0 1 8-8h144a8 8 0 0 1 8 8v104a8 8 0 0 1-8 8H573a8 8 0 0 1-8-8z" stroke="#000" stroke-opacity="0" stroke-width="2" fill="#008a0e" fill-opacity=".75"/><use xlink:href="#e" transform="matrix(1,0,0,1,569.9994034309613,701.1666734166666) translate(15.099999999999994 59.0875)"/><use xlink:href="#f" transform="matrix(1,0,0,1,569.9994034309613,701.1666734166666) translate(90.05 59.0875)"/><path d="M855 704.17a8 8 0 0 1 8-8h144a8 8 0 0 1 8 8v104a8 8 0 0 1-8 8H863a8 8 0 0 1-8-8z" stroke="#000" stroke-opacity="0" stroke-width="2" fill="#008a0e" fill-opacity=".5"/><use xlink:href="#g" transform="matrix(1,0,0,1,859.9994034309613,701.1666734166666) translate(34.55 38.4625)"/><use xlink:href="#h" transform="matrix(1,0,0,1,859.9994034309613,701.1666734166666) translate(19.599999999999994 60.0625)"/><use xlink:href="#i" transform="matrix(1,0,0,1,859.9994034309613,701.1666734166666) translate(27.049999999999997 81.66250000000001)"/><path d="M1283 716.17c17.67 0 32 17.9 32 40s-14.33 40-32 40h-96c-17.67 0-32-17.9-32-40s14.33-40 32-40z" stroke="#000" stroke-opacity="0" stroke-width="2" fill="#d2d3d5"/><use xlink:href="#j" transform="matrix(1,0,0,1,1159.9994034309611,721.1666734166666) translate(59 38.4625)"/><path d="M228.67 756.17h27.83" stroke="#008a0e" stroke-width="2" fill="none"/><path d="M228.7 757.17h-1.1l.07-1-.04-1h1.06z" stroke="#008a0e" stroke-width=".05" fill="#008a0e"/><path d="M271.76 756.17l-14.26 4.63v-9.27z" stroke="#008a0e" stroke-width="2" fill="#008a0e"/><path d="M453.1 757.17H436v-2h17.1zm93.4 0h-23.34v-2h23.34z" stroke="#008a0e" stroke-width=".05" fill="#008a0e"/><path d="M436.02 757.17H435v-2h1.02z" fill="#008a0e"/><path d="M436.05 757.2h-1.08v-2.06h1.08zm-1.03-2v1.94h.98v-1.95z" stroke="#008a0e" stroke-width=".05" fill="#008a0e"/><path d="M561.76 756.17l-14.26 4.63v-9.27z" fill="#008a0e"/><path d="M565 756.17l-18.5 6v-12zm-16.5 3.26l10.03-3.26-10.03-3.26z" stroke="#008a0e" stroke-width=".05" fill="#008a0e"/><use xlink:href="#k" transform="matrix(1,0,0,1,453.0883361024287,745.50000675) translate(0 14.222222222222223)"/><path d="M754.96 757.17H726v-2h28.96zm81.54 0h-11.46v-2h11.46z" stroke="#008a0e" stroke-width=".05" fill="#008a0e"/><path d="M726.02 757.17H725v-2h1.02z" fill="#008a0e"/><path d="M726.05 757.2h-1.08v-2.06h1.08zm-1.03-2v1.94h.98v-1.95z" stroke="#008a0e" stroke-width=".05" fill="#008a0e"/><path d="M851.76 756.17l-14.26 4.63v-9.27z" fill="#008a0e"/><path d="M855 756.17l-18.5 6v-12zm-16.5 3.26l10.03-3.26-10.03-3.26z" stroke="#008a0e" stroke-width=".05" fill="#008a0e"/><use xlink:href="#k" transform="matrix(1,0,0,1,754.9623663939242,745.50000675) translate(0 14.222222222222223)"/><path d="M1049.96 757.17H1016v-2h33.96zm86.54 0h-16.46v-2h16.46z" stroke="#008a0e" stroke-width=".05" fill="#008a0e"/><path d="M1016.02 757.17H1015v-2h1.02z" fill="#008a0e"/><path d="M1016.05 757.2h-1.08v-2.06h1.08zm-1.03-2v1.94h.98v-1.95z" stroke="#008a0e" stroke-width=".05" fill="#008a0e"/><path d="M1151.76 756.17l-14.26 4.63v-9.27z" fill="#008a0e"/><path d="M1155 756.17l-18.5 6v-12zm-16.5 3.26l10.03-3.26-10.03-3.26z" stroke="#008a0e" stroke-width=".05" fill="#008a0e"/><use xlink:href="#k" transform="matrix(1,0,0,1,1049.9623413939244,745.50000675) translate(0 14.222222222222223)"/><path d="M646 894.66h-2v-19.33h2zm0-40.66h-2v-36.83h2z" stroke="#c54242" stroke-width=".05" fill="#c54242"/><path d="M646 817.2h-2v-1.03h2z" fill="#c54242"/><path d="M646.02 817.22h-2.05v-1.08h2.05zm-2-1.03v.97h1.95v-.98z" stroke="#c54242" stroke-width=".05" fill="#c54242"/><path d="M645 909.93l-4.64-14.27h9.27z" fill="#c54242"/><path d="M645 913.17l-6-18.5h12zm-3.26-16.5l3.26 10.02 3.26-10.04z" stroke="#c54242" stroke-width=".05" fill="#c54242"/><use xlink:href="#l" transform="matrix(1,0,0,1,618.3821194803439,853.9999884999088) translate(0 14.222222222222223)"/><path d="M356 1103.96l.06.82.2.76.3.73.4.67.5.6.6.5.67.4.72.3.77.2.82.06h504.48v2H360.96l-1.06-.08-1.06-.26-1.02-.42-.94-.57-.83-.72-.72-.83-.57-.94-.42-1.02-.26-1.06-.08-1.06V817.17h2zm880 .08l-.08 1.06-.26 1.06-.42 1.02-.58.94-.7.83-.84.72-.94.57-1.02.42-1.07.26-1.06.08h-310.3v-2h310.22l.82-.07.76-.18.73-.3.67-.4.6-.52.5-.6.4-.66.3-.73.2-.76.06-.82v-289.3h2z" stroke="#cc4e00" stroke-width=".05" fill="#cc4e00"/><path d="M356 817.2h-2v-1.03h2z" fill="#cc4e00"/><path d="M356.02 817.22h-2.05v-1.08h2.05zm-2-1.03v.97h1.95v-.98z" stroke="#cc4e00" stroke-width=".05" fill="#cc4e00"/><path d="M1239.63 813.67h-9.27l4.64-14.27z" fill="#cc4e00"/><path d="M1241 814.67h-12l6-18.5zm-9.26-2h6.52l-3.26-10.03z" stroke="#cc4e00" stroke-width=".05" fill="#cc4e00"/><use xlink:href="#l" transform="matrix(1,0,0,1,865.5173214041405,1099.3333333333333) translate(0 14.222222222222223)"/><path d="M936 897.66h-2v-20.83h2zm0-42.16h-2v-38.33h2z" stroke="#c54242" stroke-width=".05" fill="#c54242"/><path d="M936 817.2h-2v-1.03h2z" fill="#c54242"/><path d="M936.02 817.22h-2.05v-1.08h2.05zm-2-1.03v.97h1.95v-.98z" stroke="#c54242" stroke-width=".05" fill="#c54242"/><path d="M935 912.93l-4.64-14.26h9.27z" fill="#c54242"/><path d="M935 916.17l-6-18.5h12zm-3.26-16.5L935 909.7l3.26-10.04z" stroke="#c54242" stroke-width=".05" fill="#c54242"/><use xlink:href="#l" transform="matrix(1,0,0,1,908.3821194803439,855.4999885000001) translate(0 14.222222222222223)"/><path d="M856 985.17H741.5M855.97 985.17H857" stroke="#c54242" stroke-width="2" fill="none"/><path d="M726.24 985.17l14.27-4.64v9.27z" stroke="#c54242" stroke-width="2" fill="#c54242"/><path d="M855 965.67a13.85 13.85 0 0 1 4.38-10.1l37.64-35.3a15.17 15.17 0 0 1 10.38-4.1h55.2a15.17 15.17 0 0 1 10.38 4.1l37.64 35.3a13.85 13.85 0 0 1 4.38 10.1v51a13.85 13.85 0 0 1-4.38 10.1l-37.64 35.3a15.17 15.17 0 0 1-10.38 4.1h-55.2a15.17 15.17 0 0 1-10.38-4.1l-37.64-35.3a13.85 13.85 0 0 1-4.38-10.1z" stroke="#000" stroke-opacity="0" stroke-width="4" fill="#ec8c8c"/><use xlink:href="#m" transform="matrix(1,0,0,1,859.9994034309613,921.1666734166666) translate(7.870370370370381 74.65277777777777)"/><use xlink:href="#n" transform="matrix(1,0,0,1,859.9994034309613,921.1666734166666) translate(86.75925925925925 74.65277777777777)"/><path d="M565 965.67a13.85 13.85 0 0 1 4.38-10.1l37.64-35.3a15.17 15.17 0 0 1 10.38-4.1h55.2a15.17 15.17 0 0 1 10.38 4.1l37.64 35.3a13.85 13.85 0 0 1 4.38 10.1v51a13.85 13.85 0 0 1-4.38 10.1l-37.64 35.3a15.17 15.17 0 0 1-10.38 4.1h-55.2a15.17 15.17 0 0 1-10.38-4.1l-37.64-35.3a13.85 13.85 0 0 1-4.38-10.1z" stroke="#000" stroke-opacity="0" stroke-width="4" fill="#ffc2c2"/><use xlink:href="#m" transform="matrix(1,0,0,1,569.9994034309613,921.1666734166666) translate(5.956790123456798 74.65277777777777)"/><use xlink:href="#o" transform="matrix(1,0,0,1,569.9994034309613,921.1666734166666) translate(84.84567901234567 74.65277777777777)"/><path d="M646 1103.96l.06.82.2.76.3.73.4.67.5.6.6.5.67.4.73.3.76.2.82.06h214.48v2H650.96l-1.06-.08-1.06-.26-1.02-.42-.94-.57-.83-.72-.72-.83-.57-.94-.42-1.02-.26-1.06-.08-1.06v-36.87h2zm590 .08l-.08 1.06-.26 1.06-.42 1.02-.58.94-.7.83-.84.72-.94.57-1.02.42-1.07.26-1.06.08h-310.3v-2h310.22l.82-.07.76-.18.73-.3.67-.4.6-.52.5-.6.4-.66.3-.73.2-.76.06-.82v-289.3h2z" stroke="#c54242" stroke-width=".05" fill="#c54242"/><path d="M646 1067.2h-2v-1.03h2z" fill="#c54242"/><path d="M646.02 1067.22h-2.05v-1.08h2.05zm-2-1.03v.97h1.95v-.98z" stroke="#c54242" stroke-width=".05" fill="#c54242"/><path d="M1239.63 813.67h-9.27l4.64-14.27z" fill="#c54242"/><path d="M1241 814.67h-12l6-18.5zm-9.26-2h6.52l-3.26-10.03z" stroke="#c54242" stroke-width=".05" fill="#c54242"/><defs><path fill="#3d4752" d="M127-220V0H93v-220H8v-28h204v28h-85" id="p"/><path fill="#3d4752" d="M114-163C36-179 61-72 57 0H25l-1-190h30c1 12-1 29 2 39 6-27 23-49 58-41v29" id="q"/><path fill="#3d4752" d="M24-231v-30h32v30H24zM24 0v-190h32V0H24" id="r"/><path fill="#3d4752" d="M115-194c55 1 70 41 70 98S169 2 115 4C84 4 66-9 55-30l1 105H24l-1-265h31l2 30c10-21 28-34 59-34zm-8 174c40 0 45-34 45-75s-6-73-45-74c-42 0-51 32-51 76 0 43 10 73 51 73" id="s"/><g id="a"><use transform="matrix(0.05,0,0,0.05,0,0)" xlink:href="#p"/><use transform="matrix(0.05,0,0,0.05,10.3,0)" xlink:href="#q"/><use transform="matrix(0.05,0,0,0.05,16.25,0)" xlink:href="#r"/><use transform="matrix(0.05,0,0,0.05,20.2,0)" xlink:href="#s"/></g><path fill="#3d4752" d="M30-248c87 1 191-15 191 75 0 78-77 80-158 76V0H30v-248zm33 125c57 0 124 11 124-50 0-59-68-47-124-48v98" id="t"/><path fill="#3d4752" d="M24 0v-261h32V0H24" id="u"/><path fill="#3d4752" d="M141-36C126-15 110 5 73 4 37 3 15-17 15-53c-1-64 63-63 125-63 3-35-9-54-41-54-24 1-41 7-42 31l-33-3c5-37 33-52 76-52 45 0 72 20 72 64v82c-1 20 7 32 28 27v20c-31 9-61-2-59-35zM48-53c0 20 12 33 32 33 41-3 63-29 60-74-43 2-92-5-92 41" id="v"/><path fill="#3d4752" d="M117-194c89-4 53 116 60 194h-32v-121c0-31-8-49-39-48C34-167 62-67 57 0H25l-1-190h30c1 10-1 24 2 32 11-22 29-35 61-36" id="w"/><path fill="#3d4752" d="M177-190C167-65 218 103 67 71c-23-6-38-20-44-43l32-5c15 47 100 32 89-28v-30C133-14 115 1 83 1 29 1 15-40 15-95c0-56 16-97 71-98 29-1 48 16 59 35 1-10 0-23 2-32h30zM94-22c36 0 50-32 50-73 0-42-14-75-50-75-39 0-46 34-46 75s6 73 46 73" id="x"/><g id="b"><use transform="matrix(0.05,0,0,0.05,0,0)" xlink:href="#t"/><use transform="matrix(0.05,0,0,0.05,12,0)" xlink:href="#u"/><use transform="matrix(0.05,0,0,0.05,15.949999999999998,0)" xlink:href="#v"/><use transform="matrix(0.05,0,0,0.05,25.950000000000003,0)" xlink:href="#w"/><use transform="matrix(0.05,0,0,0.05,35.95,0)" xlink:href="#w"/><use transform="matrix(0.05,0,0,0.05,45.95,0)" xlink:href="#r"/><use transform="matrix(0.05,0,0,0.05,49.900000000000006,0)" xlink:href="#w"/><use transform="matrix(0.05,0,0,0.05,59.900000000000006,0)" xlink:href="#x"/></g><path fill="#fff" d="M24-248c93 1 206-16 204 79-1 75-69 88-152 82V0H24v-248zm52 121c47 0 100 7 100-41 0-47-54-39-100-39v80" id="y"/><path fill="#fff" d="M25 0v-261h50V0H25" id="z"/><path fill="#fff" d="M133-34C117-15 103 5 69 4 32 3 11-16 11-54c-1-60 55-63 116-61 1-26-3-47-28-47-18 1-26 9-28 27l-52-2c7-38 36-58 82-57s74 22 75 68l1 82c-1 14 12 18 25 15v27c-30 8-71 5-69-32zm-48 3c29 0 43-24 42-57-32 0-66-3-65 30 0 17 8 27 23 27" id="A"/><path fill="#fff" d="M135-194c87-1 58 113 63 194h-50c-7-57 23-157-34-157-59 0-34 97-39 157H25l-1-190h47c2 12-1 28 3 38 12-26 28-41 61-42" id="B"/><path fill="#fff" d="M185-48c-13 30-37 53-82 52C43 2 14-33 14-96s30-98 90-98c62 0 83 45 84 108H66c0 31 8 55 39 56 18 0 30-7 34-22zm-45-69c5-46-57-63-70-21-2 6-4 13-4 21h74" id="C"/><g id="c"><use transform="matrix(0.05,0,0,0.05,0,0)" xlink:href="#y"/><use transform="matrix(0.05,0,0,0.05,12,0)" xlink:href="#z"/><use transform="matrix(0.05,0,0,0.05,17,0)" xlink:href="#A"/><use transform="matrix(0.05,0,0,0.05,27,0)" xlink:href="#B"/><use transform="matrix(0.05,0,0,0.05,37.95,0)" xlink:href="#C"/></g><path fill="#fff" d="M136-208V0H84v-208H4v-40h212v40h-80" id="D"/><path fill="#fff" d="M25-224v-37h50v37H25zM25 0v-190h50V0H25" id="E"/><path fill="#fff" d="M190-63c-7 42-38 67-86 67-59 0-84-38-90-98-12-110 154-137 174-36l-49 2c-2-19-15-32-35-32-30 0-35 28-38 64-6 74 65 87 74 30" id="F"/><path fill="#fff" d="M147 0L96-86 75-71V0H25v-261h50v150l67-79h53l-66 74L201 0h-54" id="G"/><path fill="#fff" d="M115-3C79 11 28 4 28-45v-112H4v-33h27l15-45h31v45h36v33H77v99c-1 23 16 31 38 25v30" id="H"/><g id="d"><use transform="matrix(0.05,0,0,0.05,0,0)" xlink:href="#D"/><use transform="matrix(0.05,0,0,0.05,10.600000000000001,0)" xlink:href="#E"/><use transform="matrix(0.05,0,0,0.05,15.600000000000001,0)" xlink:href="#F"/><use transform="matrix(0.05,0,0,0.05,25.6,0)" xlink:href="#G"/><use transform="matrix(0.05,0,0,0.05,35.6,0)" xlink:href="#C"/><use transform="matrix(0.05,0,0,0.05,45.6,0)" xlink:href="#H"/></g><path fill="#fff" d="M240-174c0 40-23 61-54 70L253 0h-59l-57-94H76V0H24v-248c93 4 217-23 216 74zM76-134c48-2 112 12 112-38 0-48-66-32-112-35v73" id="I"/><path fill="#fff" d="M137-138c1-29-70-34-71-4 15 46 118 7 119 86 1 83-164 76-172 9l43-7c4 19 20 25 44 25 33 8 57-30 24-41C81-84 22-81 20-136c-2-80 154-74 161-7" id="J"/><path fill="#fff" d="M135-150c-39-12-60 13-60 57V0H25l-1-190h47c2 13-1 29 3 40 6-28 27-53 61-41v41" id="K"/><path fill="#fff" d="M128 0H69L1-190h53L99-40l48-150h52" id="L"/><g id="e"><use transform="matrix(0.05,0,0,0.05,0,0)" xlink:href="#I"/><use transform="matrix(0.05,0,0,0.05,12.950000000000001,0)" xlink:href="#C"/><use transform="matrix(0.05,0,0,0.05,22.950000000000003,0)" xlink:href="#J"/><use transform="matrix(0.05,0,0,0.05,32.95,0)" xlink:href="#C"/><use transform="matrix(0.05,0,0,0.05,42.95,0)" xlink:href="#K"/><use transform="matrix(0.05,0,0,0.05,49.95,0)" xlink:href="#L"/><use transform="matrix(0.05,0,0,0.05,59.95,0)" xlink:href="#C"/></g><path fill="#fff" d="M186 0v-106H76V0H24v-248h52v99h110v-99h50V0h-50" id="M"/><path fill="#fff" d="M110-194c64 0 96 36 96 99 0 64-35 99-97 99-61 0-95-36-95-99 0-62 34-99 96-99zm-1 164c35 0 45-28 45-65 0-40-10-65-43-65-34 0-45 26-45 65 0 36 10 65 43 65" id="N"/><g id="f"><use transform="matrix(0.05,0,0,0.05,0,0)" xlink:href="#M"/><use transform="matrix(0.05,0,0,0.05,12.950000000000001,0)" xlink:href="#N"/><use transform="matrix(0.05,0,0,0.05,23.900000000000002,0)" xlink:href="#H"/><use transform="matrix(0.05,0,0,0.05,29.85,0)" xlink:href="#C"/><use transform="matrix(0.05,0,0,0.05,39.85,0)" xlink:href="#z"/></g><path fill="#333" d="M24-248c93 1 206-16 204 79-1 75-69 88-152 82V0H24v-248zm52 121c47 0 100 7 100-41 0-47-54-39-100-39v80" id="O"/><path fill="#333" d="M85 4C-2 5 27-109 22-190h50c7 57-23 150 33 157 60-5 35-97 40-157h50l1 190h-47c-2-12 1-28-3-38-12 25-28 42-61 42" id="P"/><path fill="#333" d="M135-150c-39-12-60 13-60 57V0H25l-1-190h47c2 13-1 29 3 40 6-28 27-53 61-41v41" id="Q"/><path fill="#333" d="M190-63c-7 42-38 67-86 67-59 0-84-38-90-98-12-110 154-137 174-36l-49 2c-2-19-15-32-35-32-30 0-35 28-38 64-6 74 65 87 74 30" id="R"/><path fill="#333" d="M114-157C55-157 80-60 75 0H25v-261h50l-1 109c12-26 28-41 61-42 86-1 58 113 63 194h-50c-7-57 23-157-34-157" id="S"/><path fill="#333" d="M133-34C117-15 103 5 69 4 32 3 11-16 11-54c-1-60 55-63 116-61 1-26-3-47-28-47-18 1-26 9-28 27l-52-2c7-38 36-58 82-57s74 22 75 68l1 82c-1 14 12 18 25 15v27c-30 8-71 5-69-32zm-48 3c29 0 43-24 42-57-32 0-66-3-65 30 0 17 8 27 23 27" id="T"/><path fill="#333" d="M137-138c1-29-70-34-71-4 15 46 118 7 119 86 1 83-164 76-172 9l43-7c4 19 20 25 44 25 33 8 57-30 24-41C81-84 22-81 20-136c-2-80 154-74 161-7" id="U"/><path fill="#333" d="M185-48c-13 30-37 53-82 52C43 2 14-33 14-96s30-98 90-98c62 0 83 45 84 108H66c0 31 8 55 39 56 18 0 30-7 34-22zm-45-69c5-46-57-63-70-21-2 6-4 13-4 21h74" id="V"/><g id="g"><use transform="matrix(0.05,0,0,0.05,0,0)" xlink:href="#O"/><use transform="matrix(0.05,0,0,0.05,12,0)" xlink:href="#P"/><use transform="matrix(0.05,0,0,0.05,22.950000000000003,0)" xlink:href="#Q"/><use transform="matrix(0.05,0,0,0.05,29.950000000000003,0)" xlink:href="#R"/><use transform="matrix(0.05,0,0,0.05,39.95,0)" xlink:href="#S"/><use transform="matrix(0.05,0,0,0.05,50.900000000000006,0)" xlink:href="#T"/><use transform="matrix(0.05,0,0,0.05,60.900000000000006,0)" xlink:href="#U"/><use transform="matrix(0.05,0,0,0.05,70.9,0)" xlink:href="#V"/></g><path fill="#333" d="M182-130c37 4 62 22 62 59C244 23 116-4 24 0v-248c84 5 203-23 205 63 0 31-19 50-47 55zM76-148c40-3 101 13 101-30 0-44-60-28-101-31v61zm0 110c48-3 116 14 116-37 0-48-69-32-116-35v72" id="W"/><path fill="#333" d="M147 0L96-86 75-71V0H25v-261h50v150l67-79h53l-66 74L201 0h-54" id="X"/><path fill="#333" d="M135-194c53 0 70 44 70 98 0 56-19 98-73 100-31 1-45-17-59-34 3 33 2 69 2 105H25l-1-265h48c2 10 0 23 3 31 11-24 29-35 60-35zM114-30c33 0 39-31 40-66 0-38-9-64-40-64-56 0-55 130 0 130" id="Y"/><path fill="#333" d="M25-224v-37h50v37H25zM25 0v-190h50V0H25" id="Z"/><path fill="#333" d="M135-194c87-1 58 113 63 194h-50c-7-57 23-157-34-157-59 0-34 97-39 157H25l-1-190h47c2 12-1 28 3 38 12-26 28-41 61-42" id="aa"/><path fill="#333" d="M195-6C206 82 75 100 31 46c-4-6-6-13-8-21l49-6c3 16 16 24 34 25 40 0 42-37 40-79-11 22-30 35-61 35-53 0-70-43-70-97 0-56 18-96 73-97 30 0 46 14 59 34l2-30h47zm-90-29c32 0 41-27 41-63 0-35-9-62-40-62-32 0-39 29-40 63 0 36 9 62 39 62" id="ab"/><g id="h"><use transform="matrix(0.05,0,0,0.05,0,0)" xlink:href="#W"/><use transform="matrix(0.05,0,0,0.05,12.950000000000001,0)" xlink:href="#T"/><use transform="matrix(0.05,0,0,0.05,22.950000000000003,0)" xlink:href="#R"/><use transform="matrix(0.05,0,0,0.05,32.95,0)" xlink:href="#X"/><use transform="matrix(0.05,0,0,0.05,42.95,0)" xlink:href="#Y"/><use transform="matrix(0.05,0,0,0.05,53.900000000000006,0)" xlink:href="#T"/><use transform="matrix(0.05,0,0,0.05,63.900000000000006,0)" xlink:href="#R"/><use transform="matrix(0.05,0,0,0.05,73.9,0)" xlink:href="#X"/><use transform="matrix(0.05,0,0,0.05,83.9,0)" xlink:href="#Z"/><use transform="matrix(0.05,0,0,0.05,88.9,0)" xlink:href="#aa"/><use transform="matrix(0.05,0,0,0.05,99.85000000000001,0)" xlink:href="#ab"/></g><path fill="#333" d="M24 0v-248h195v40H76v63h132v40H76v65h150V0H24" id="ac"/><path fill="#333" d="M144 0l-44-69L55 0H2l70-98-66-92h53l41 62 40-62h54l-67 91 71 99h-54" id="ad"/><g id="i"><use transform="matrix(0.05,0,0,0.05,0,0)" xlink:href="#ac"/><use transform="matrix(0.05,0,0,0.05,12,0)" xlink:href="#ad"/><use transform="matrix(0.05,0,0,0.05,22,0)" xlink:href="#Y"/><use transform="matrix(0.05,0,0,0.05,32.95,0)" xlink:href="#V"/><use transform="matrix(0.05,0,0,0.05,42.95,0)" xlink:href="#Q"/><use transform="matrix(0.05,0,0,0.05,49.95,0)" xlink:href="#Z"/><use transform="matrix(0.05,0,0,0.05,54.95,0)" xlink:href="#V"/><use transform="matrix(0.05,0,0,0.05,64.95,0)" xlink:href="#aa"/><use transform="matrix(0.05,0,0,0.05,75.9,0)" xlink:href="#R"/><use transform="matrix(0.05,0,0,0.05,85.9,0)" xlink:href="#V"/></g><path fill="#333" d="M30 0v-248h187v28H63v79h144v27H63v87h162V0H30" id="ae"/><path fill="#333" d="M117-194c89-4 53 116 60 194h-32v-121c0-31-8-49-39-48C34-167 62-67 57 0H25l-1-190h30c1 10-1 24 2 32 11-22 29-35 61-36" id="af"/><path fill="#333" d="M85-194c31 0 48 13 60 33l-1-100h32l1 261h-30c-2-10 0-23-3-31C134-8 116 4 85 4 32 4 16-35 15-94c0-66 23-100 70-100zm9 24c-40 0-46 34-46 75 0 40 6 74 45 74 42 0 51-32 51-76 0-42-9-74-50-73" id="ag"/><g id="j"><use transform="matrix(0.05,0,0,0.05,0,0)" xlink:href="#ae"/><use transform="matrix(0.05,0,0,0.05,12,0)" xlink:href="#af"/><use transform="matrix(0.05,0,0,0.05,22,0)" xlink:href="#ag"/></g><g id="k"><use transform="matrix(0.04938271604938272,0,0,0.04938271604938272,0,0)" xlink:href="#U"/><use transform="matrix(0.04938271604938272,0,0,0.04938271604938272,9.876543209876544,0)" xlink:href="#P"/><use transform="matrix(0.04938271604938272,0,0,0.04938271604938272,20.69135802469136,0)" xlink:href="#R"/><use transform="matrix(0.04938271604938272,0,0,0.04938271604938272,30.567901234567906,0)" xlink:href="#R"/><use transform="matrix(0.04938271604938272,0,0,0.04938271604938272,40.44444444444445,0)" xlink:href="#V"/><use transform="matrix(0.04938271604938272,0,0,0.04938271604938272,50.320987654320994,0)" xlink:href="#U"/><use transform="matrix(0.04938271604938272,0,0,0.04938271604938272,60.19753086419754,0)" xlink:href="#U"/></g><path fill="#333" d="M121-226c-27-7-43 5-38 36h38v33H83V0H34v-157H6v-33h28c-9-59 32-81 87-68v32" id="ah"/><path fill="#333" d="M25 0v-261h50V0H25" id="ai"/><g id="l"><use transform="matrix(0.04938271604938272,0,0,0.04938271604938272,0,0)" xlink:href="#ah"/><use transform="matrix(0.04938271604938272,0,0,0.04938271604938272,5.8765432098765435,0)" xlink:href="#T"/><use transform="matrix(0.04938271604938272,0,0,0.04938271604938272,15.753086419753087,0)" xlink:href="#Z"/><use transform="matrix(0.04938271604938272,0,0,0.04938271604938272,20.69135802469136,0)" xlink:href="#ai"/><use transform="matrix(0.04938271604938272,0,0,0.04938271604938272,25.629629629629633,0)" xlink:href="#P"/><use transform="matrix(0.04938271604938272,0,0,0.04938271604938272,36.44444444444445,0)" xlink:href="#Q"/><use transform="matrix(0.04938271604938272,0,0,0.04938271604938272,43.35802469135803,0)" xlink:href="#V"/></g><path fill="#3a414a" d="M67-125c0 53 21 87 73 88 37 1 54-22 65-47l45 17C233-25 199 4 140 4 58 4 20-42 15-125 8-235 124-281 211-232c18 10 29 29 36 50l-46 12c-8-25-30-41-62-41-52 0-71 34-72 86" id="aj"/><path fill="#3a414a" d="M133-34C117-15 103 5 69 4 32 3 11-16 11-54c-1-60 55-63 116-61 1-26-3-47-28-47-18 1-26 9-28 27l-52-2c7-38 36-58 82-57s74 22 75 68l1 82c-1 14 12 18 25 15v27c-30 8-71 5-69-32zm-48 3c29 0 43-24 42-57-32 0-66-3-65 30 0 17 8 27 23 27" id="ak"/><path fill="#3a414a" d="M135-194c87-1 58 113 63 194h-50c-7-57 23-157-34-157-59 0-34 97-39 157H25l-1-190h47c2 12-1 28 3 38 12-26 28-41 61-42" id="al"/><path fill="#3a414a" d="M190-63c-7 42-38 67-86 67-59 0-84-38-90-98-12-110 154-137 174-36l-49 2c-2-19-15-32-35-32-30 0-35 28-38 64-6 74 65 87 74 30" id="am"/><path fill="#3a414a" d="M185-48c-13 30-37 53-82 52C43 2 14-33 14-96s30-98 90-98c62 0 83 45 84 108H66c0 31 8 55 39 56 18 0 30-7 34-22zm-45-69c5-46-57-63-70-21-2 6-4 13-4 21h74" id="an"/><path fill="#3a414a" d="M25 0v-261h50V0H25" id="ao"/><g id="m"><use transform="matrix(0.06172839506172839,0,0,0.06172839506172839,0,0)" xlink:href="#aj"/><use transform="matrix(0.06172839506172839,0,0,0.06172839506172839,15.987654320987653,0)" xlink:href="#ak"/><use transform="matrix(0.06172839506172839,0,0,0.06172839506172839,28.333333333333332,0)" xlink:href="#al"/><use transform="matrix(0.06172839506172839,0,0,0.06172839506172839,41.85185185185185,0)" xlink:href="#am"/><use transform="matrix(0.06172839506172839,0,0,0.06172839506172839,54.197530864197525,0)" xlink:href="#an"/><use transform="matrix(0.06172839506172839,0,0,0.06172839506172839,66.5432098765432,0)" xlink:href="#ao"/></g><path fill="#3a414a" d="M186 0v-106H76V0H24v-248h52v99h110v-99h50V0h-50" id="ap"/><path fill="#3a414a" d="M110-194c64 0 96 36 96 99 0 64-35 99-97 99-61 0-95-36-95-99 0-62 34-99 96-99zm-1 164c35 0 45-28 45-65 0-40-10-65-43-65-34 0-45 26-45 65 0 36 10 65 43 65" id="aq"/><path fill="#3a414a" d="M115-3C79 11 28 4 28-45v-112H4v-33h27l15-45h31v45h36v33H77v99c-1 23 16 31 38 25v30" id="ar"/><g id="n"><use transform="matrix(0.06172839506172839,0,0,0.06172839506172839,0,0)" xlink:href="#ap"/><use transform="matrix(0.06172839506172839,0,0,0.06172839506172839,15.987654320987653,0)" xlink:href="#aq"/><use transform="matrix(0.06172839506172839,0,0,0.06172839506172839,29.50617283950617,0)" xlink:href="#ar"/><use transform="matrix(0.06172839506172839,0,0,0.06172839506172839,36.85185185185185,0)" xlink:href="#an"/><use transform="matrix(0.06172839506172839,0,0,0.06172839506172839,49.197530864197525,0)" xlink:href="#ao"/></g><path fill="#3a414a" d="M24-248c93 1 206-16 204 79-1 75-69 88-152 82V0H24v-248zm52 121c47 0 100 7 100-41 0-47-54-39-100-39v80" id="as"/><g id="o"><use transform="matrix(0.06172839506172839,0,0,0.06172839506172839,0,0)" xlink:href="#as"/><use transform="matrix(0.06172839506172839,0,0,0.06172839506172839,14.814814814814813,0)" xlink:href="#ao"/><use transform="matrix(0.06172839506172839,0,0,0.06172839506172839,20.98765432098765,0)" xlink:href="#ak"/><use transform="matrix(0.06172839506172839,0,0,0.06172839506172839,33.33333333333333,0)" xlink:href="#al"/><use transform="matrix(0.06172839506172839,0,0,0.06172839506172839,46.85185185185185,0)" xlink:href="#an"/></g></defs></g></svg>